<?xml version="1.0" encoding="UTF-8" standalone="no"?>
<!-- Created with Inkscape (http://www.inkscape.org/) -->

<svg
   version="1.1"
   id="svg1"
   width="304"
   height="304"
   viewBox="0 0 304 304"
   sodipodi:docname="Property Wala Bhaiya Logo 13-12-2025.eps"
   xmlns:inkscape="http://www.inkscape.org/namespaces/inkscape"
   xmlns:sodipodi="http://sodipodi.sourceforge.net/DTD/sodipodi-0.dtd"
   xmlns="http://www.w3.org/2000/svg"
   xmlns:svg="http://www.w3.org/2000/svg">
  <defs
     id="defs1" />
  <sodipodi:namedview
     id="namedview1"
     pagecolor="#ffffff"
     bordercolor="#000000"
     borderopacity="0.25"
     inkscape:showpageshadow="2"
     inkscape:pageopacity="0.0"
     inkscape:pagecheckerboard="0"
     inkscape:deskcolor="#d1d1d1">
    <inkscape:page
       x="0"
       y="0"
       inkscape:label="1"
       id="page1"
       width="304"
       height="304"
       margin="0"
       bleed="0" />
  </sodipodi:namedview>
  <g
     id="g1"
     inkscape:groupmode="layer"
     inkscape:label="1">
    <path
       id="path1"
       d="M 2.51953,5.59375 H 2270.24 V 2273.31 H 2.51953 V 5.59375"
       style="fill:#3673c2;fill-opacity:1;fill-rule:nonzero;stroke:none"
       transform="matrix(0.13333333,0,0,-0.13333333,0,304)" />
    <path
       id="path2"
       d="m 620.102,677.488 h -92 V 509.672 h 32.832 v 134.75 h 58.418 c 6.968,0 12.441,-5.473 12.441,-12.442 v -26.335 c 0,-6.965 -5.473,-12.438 -12.441,-12.438 h -35.547 l -9.961,-33.066 h 46.258 c 24.367,0 44.246,19.64 44.757,44.007 v 29.332 c -0.511,24.364 -20.39,44.008 -44.757,44.008"
       style="fill:#ffffff;fill-opacity:1;fill-rule:nonzero;stroke:none"
       transform="matrix(0.13333333,0,0,-0.13333333,0,304)" />
    <path
       id="path3"
       d="m 797.637,564.113 c 15.394,6.969 26.101,22.364 26.34,40.035 v 29.332 c -0.477,24.364 -20.395,44.008 -44.762,44.008 H 687.219 V 509.672 h 32.828 v 134.75 h 58.422 c 6.965,0 12.437,-5.473 12.437,-12.442 v -26.335 c 0,-6.965 -5.472,-12.438 -12.437,-12.438 h -35.547 l -9.961,-33.066 h 29.09 l 29.094,-50.469 h 38.066 l -31.574,54.441"
       style="fill:#ffffff;fill-opacity:1;fill-rule:nonzero;stroke:none"
       transform="matrix(0.13333333,0,0,-0.13333333,0,304)" />
    <path
       id="path4"
       d="m 947.777,554.906 c 0,-6.695 -5.468,-12.441 -12.398,-12.441 H 894.32 c -6.691,0 -12.398,5.746 -12.398,12.441 v 77.074 c 0,6.969 5.707,12.442 12.398,12.442 h 41.059 c 6.93,0 12.398,-5.473 12.398,-12.442 z m -11.648,122.582 h -42.281 c -24.645,0 -44.758,-20.117 -44.758,-44.758 v -78.296 c 0,-24.645 20.113,-44.762 44.758,-44.762 h 42.281 c 24.601,0 44.758,20.117 44.758,44.762 v 78.296 c 0,24.641 -20.157,44.758 -44.758,44.758"
       style="fill:#ffffff;fill-opacity:1;fill-rule:nonzero;stroke:none"
       transform="matrix(0.13333333,0,0,-0.13333333,0,304)" />
    <path
       id="path5"
       d="m 1096.46,677.488 h -92 V 509.672 h 32.84 v 134.75 h 58.41 c 6.97,0 12.44,-5.473 12.44,-12.442 v -26.335 c 0,-6.965 -5.47,-12.438 -12.44,-12.438 h -35.54 l -9.96,-33.066 h 46.25 c 24.41,0 44.29,19.64 44.76,44.007 v 29.332 c -0.47,24.364 -20.35,44.008 -44.76,44.008"
       style="fill:#ffffff;fill-opacity:1;fill-rule:nonzero;stroke:none"
       transform="matrix(0.13333333,0,0,-0.13333333,0,304)" />
    <path
       id="path6"
       d="m 1196.41,593.441 v 38.539 c 0,6.969 5.75,12.442 12.44,12.442 h 61.69 l 9.92,33.066 h -72.08 c -24.64,0 -44.76,-20.117 -44.76,-44.758 v -78.296 c 0,-24.645 20.12,-44.762 44.76,-44.762 h 72.08 v 32.793 h -71.61 c -6.69,0 -12.44,5.746 -12.44,12.441 v 22.121 h 84.05 v 33.106 h -67.36 l -16.69,-16.692"
       style="fill:#ffffff;fill-opacity:1;fill-rule:nonzero;stroke:none"
       transform="matrix(0.13333333,0,0,-0.13333333,0,304)" />
    <path
       id="path7"
       d="m 1414.5,564.113 c 15.39,6.969 26.1,22.364 26.33,40.035 v 29.332 c -0.47,24.364 -20.39,44.008 -44.76,44.008 h -92 V 509.672 h 32.84 v 134.75 h 58.41 c 6.97,0 12.45,-5.473 12.45,-12.442 v -26.335 c 0,-6.965 -5.48,-12.438 -12.45,-12.438 h -35.54 l -9.96,-33.066 h 29.09 L 1408,509.672 h 38.07 l -31.57,54.441"
       style="fill:#ffffff;fill-opacity:1;fill-rule:nonzero;stroke:none"
       transform="matrix(0.13333333,0,0,-0.13333333,0,304)" />
    <path
       id="path8"
       d="m 1458.47,677.488 v -33.066 h 64.67 l -16.41,-16.418 V 509.672 h 32.79 v 134.75 h 48.27 v 33.066 h -129.32"
       style="fill:#ffffff;fill-opacity:1;fill-rule:nonzero;stroke:none"
       transform="matrix(0.13333333,0,0,-0.13333333,0,304)" />
    <path
       id="path9"
       d="m 1705.13,677.488 -36.57,-54.207 -36.29,54.207 h -39.52 l 44.99,-67.355 h 22.12 l -7.67,-11.453 v -89.008 h 33.06 v 78.812 l 59.41,89.004 h -39.53"
       style="fill:#ffffff;fill-opacity:1;fill-rule:nonzero;stroke:none"
       transform="matrix(0.13333333,0,0,-0.13333333,0,304)" />
    <path
       id="path10"
       d="m 919.246,1789.04 c -9.125,-28.08 -26.504,-71.86 -26.504,-71.86 0,1.66 8.574,86.99 8.574,86.99 0,0 8.805,42.94 114.314,53.08 105.47,10.07 133.12,13.75 159.66,-2.56 26.51,-16.25 54.75,-41.81 75.82,-81.69 21.12,-39.84 38.23,-86.72 38.23,-86.72 0,0 -106.7,19.94 -192.23,18.82 -85.49,-1.13 -159.297,-6.2 -162.766,-6.2 -3.375,0 -21.621,-1.08 -13.684,16.57 8.028,17.69 173.66,-2.51 254.04,4.22 0,0 22.81,-1.98 21.39,14.33 -1.41,16.26 -13.68,98.8 -43.61,110.3 -29.92,11.5 -61.58,6.2 -118.87,0.27 -57.344,-5.88 -105.243,-27.48 -114.364,-55.55"
       style="fill:#ffffff;fill-opacity:1;fill-rule:nonzero;stroke:none"
       transform="matrix(0.13333333,0,0,-0.13333333,0,304)" />
    <path
       id="path11"
       d="m 881.859,1511.8 c -5.472,-2.07 -15.097,-18.91 -4.238,-27.62 0,0 1.047,16.21 10.809,18.63 9.808,2.43 -1.047,11.05 -6.571,8.99 z m 303.171,-92.43 c -14.23,4.09 -23.35,-8.8 -20.52,-22.28 2.87,-13.47 35.94,-8.3 36.67,-8.26 15.24,0.99 -1.87,26.41 -16.15,30.54 z m 0,0 c -14.23,4.09 -23.35,-8.8 -20.52,-22.28 2.87,-13.47 35.94,-8.3 36.67,-8.26 15.24,0.99 -1.87,26.41 -16.15,30.54 z m -303.171,92.43 c -5.472,-2.07 -15.097,-18.91 -4.238,-27.62 0,0 1.047,16.21 10.809,18.63 9.808,2.43 -1.047,11.05 -6.571,8.99 z m 0,0 c -5.472,-2.07 -15.097,-18.91 -4.238,-27.62 0,0 1.047,16.21 10.809,18.63 9.808,2.43 -1.047,11.05 -6.571,8.99 z m 303.171,-92.43 c -14.23,4.09 -23.35,-8.8 -20.52,-22.28 2.87,-13.47 35.94,-8.3 36.67,-8.26 15.24,0.99 -1.87,26.41 -16.15,30.54 z m 0,0 c -14.23,4.09 -23.35,-8.8 -20.52,-22.28 2.87,-13.47 35.94,-8.3 36.67,-8.26 15.24,0.99 -1.87,26.41 -16.15,30.54 z m -303.171,92.43 c -5.472,-2.07 -15.097,-18.91 -4.238,-27.62 0,0 1.047,16.21 10.809,18.63 9.808,2.43 -1.047,11.05 -6.571,8.99 z m 0,0 c -5.472,-2.07 -15.097,-18.91 -4.238,-27.62 0,0 1.047,16.21 10.809,18.63 9.808,2.43 -1.047,11.05 -6.571,8.99 z m 303.171,-92.43 c -14.23,4.09 -23.35,-8.8 -20.52,-22.28 2.87,-13.47 35.94,-8.3 36.67,-8.26 15.24,0.99 -1.87,26.41 -16.15,30.54 z m 0,0 c -14.23,4.09 -23.35,-8.8 -20.52,-22.28 2.87,-13.47 35.94,-8.3 36.67,-8.26 15.24,0.99 -1.87,26.41 -16.15,30.54 z m -303.171,92.43 c -5.472,-2.07 -15.097,-18.91 -4.238,-27.62 0,0 1.047,16.21 10.809,18.63 9.808,2.43 -1.047,11.05 -6.571,8.99 z m 0,0 c -5.472,-2.07 -15.097,-18.91 -4.238,-27.62 0,0 1.047,16.21 10.809,18.63 9.808,2.43 -1.047,11.05 -6.571,8.99 z m 303.171,-92.43 c -14.23,4.09 -23.35,-8.8 -20.52,-22.28 2.87,-13.47 35.94,-8.3 36.67,-8.26 15.24,0.99 -1.87,26.41 -16.15,30.54 z m -303.171,92.43 c -5.472,-2.07 -15.097,-18.91 -4.238,-27.62 0,0 1.047,16.21 10.809,18.63 9.808,2.43 -1.047,11.05 -6.571,8.99 z m 303.171,-92.43 c -14.23,4.09 -23.35,-8.8 -20.52,-22.28 2.87,-13.47 35.94,-8.3 36.67,-8.26 15.24,0.99 -1.87,26.41 -16.15,30.54 z m 0,0 c -14.23,4.09 -23.35,-8.8 -20.52,-22.28 2.87,-13.47 35.94,-8.3 36.67,-8.26 15.24,0.99 -1.87,26.41 -16.15,30.54 z m -303.171,92.43 c -5.472,-2.07 -15.097,-18.91 -4.238,-27.62 0,0 1.047,16.21 10.809,18.63 9.808,2.43 -1.047,11.05 -6.571,8.99 z m 0,0 c -5.472,-2.07 -15.097,-18.91 -4.238,-27.62 0,0 1.047,16.21 10.809,18.63 9.808,2.43 -1.047,11.05 -6.571,8.99 z m 303.171,-92.43 c -14.23,4.09 -23.35,-8.8 -20.52,-22.28 2.87,-13.47 35.94,-8.3 36.67,-8.26 15.24,0.99 -1.87,26.41 -16.15,30.54 z m 0,0 c -14.23,4.09 -23.35,-8.8 -20.52,-22.28 2.87,-13.47 35.94,-8.3 36.67,-8.26 15.24,0.99 -1.87,26.41 -16.15,30.54 z m -303.171,92.43 c -5.472,-2.07 -15.097,-18.91 -4.238,-27.62 0,0 1.047,16.21 10.809,18.63 9.808,2.43 -1.047,11.05 -6.571,8.99 z m 0,0 c -5.472,-2.07 -15.097,-18.91 -4.238,-27.62 0,0 1.047,16.21 10.809,18.63 9.808,2.43 -1.047,11.05 -6.571,8.99 z m 303.171,-92.43 c -14.23,4.09 -23.35,-8.8 -20.52,-22.28 2.87,-13.47 35.94,-8.3 36.67,-8.26 15.24,0.99 -1.87,26.41 -16.15,30.54 z m 0,0 c -14.23,4.09 -23.35,-8.8 -20.52,-22.28 2.87,-13.47 35.94,-8.3 36.67,-8.26 15.24,0.99 -1.87,26.41 -16.15,30.54 z m -303.171,92.43 c -5.472,-2.07 -15.097,-18.91 -4.238,-27.62 0,0 1.047,16.21 10.809,18.63 9.808,2.43 -1.047,11.05 -6.571,8.99"
       style="fill:#ffffff;fill-opacity:1;fill-rule:nonzero;stroke:none"
       transform="matrix(0.13333333,0,0,-0.13333333,0,304)" />
    <path
       id="path12"
       d="m 999.18,1163.18 c 0,0 -8.742,100.67 -25.086,124.62 l -4.86,8.99 c 0,0 12.84,-120.14 29.946,-133.61"
       style="fill:#ffffff;fill-opacity:1;fill-rule:nonzero;stroke:none"
       transform="matrix(0.13333333,0,0,-0.13333333,0,304)" />
    <path
       id="path13"
       d="m 1078.06,737.836 c 0,0 -65.29,51.09 -77.55,109.187 -12.256,58.106 7.41,141.473 13.69,159.157 6.27,17.68 23.38,25.54 34.5,23.3 11.11,-2.25 21.95,-4.78 26.8,-42.105 4.84,-37.336 33.07,-80.562 48.75,-101.332 15.68,-20.773 16.82,-71.016 -11.41,-106.383 -28.23,-35.371 -34.78,-41.824 -34.78,-41.824"
       style="fill:#ffffff;fill-opacity:1;fill-rule:nonzero;stroke:none"
       transform="matrix(0.13333333,0,0,-0.13333333,0,304)" />
    <path
       id="path14"
       d="m 1034.16,1038.93 c 0,0 20.73,0.37 31.74,-9.08 0,0 21.28,27.23 26.99,36.4 5.7,9.16 7.03,19.64 -6.09,29.94 -13.11,10.29 -36.49,14.22 -39.34,11.79 -2.85,-2.44 -3.99,-3.05 -6.84,-16.66 -3.42,-16.28 -6.46,-52.39 -6.46,-52.39"
       style="fill:#ffffff;fill-opacity:1;fill-rule:nonzero;stroke:none"
       transform="matrix(0.13333333,0,0,-0.13333333,0,304)" />
    <path
       id="path15"
       d="m 1613.61,1012.12 c -1.74,2.52 -3.47,5.7 -1.97,8.54 0.1,0.18 0.23,0.4 0.37,0.58 2.33,3.28 4.7,5.71 5.84,9.7 1.46,0.09 2.6,-1.17 3.47,-2.29 5.61,-7.54 10.03,-15.9 14.09,-24.38 4.56,-9.528 8.71,-19.454 9.49,-29.918 -11.49,11.679 -21.99,24.343 -31.29,37.768 z m -10.59,30.59 c 0,0 -0.04,-0.05 -0.09,-0.09 -2.14,-2.02 -5.84,-2.34 -7.25,-4.94 -0.64,-1.13 -0.82,-2.65 -2.01,-3.24 -0.96,-0.54 -2.1,-0.08 -3.1,0.36 -31.34,13.57 -62.63,27.13 -93.97,40.69 -43.52,18.91 -87.09,37.77 -129.42,59.19 -1.96,0.99 -16.33,8.04 -13.09,10.7 1.69,1.39 7.98,-2.12 9.85,-2.84 3.7,-1.34 7.44,-2.74 11.13,-4.13 14.83,-5.48 29.66,-10.96 44.43,-16.48 29.66,-10.96 59.3,-21.96 88.91,-32.92 28.33,-10.51 56.61,-21.02 84.94,-31.48 3.33,-1.26 6.8,-2.56 9.13,-5.26 2.37,-2.64 3.05,-7.05 0.54,-9.56 z m 42.47,-23.99 c -3.74,12.58 -8.03,25.56 -17.24,35.03 -10.31,10.7 -25.32,15.45 -39.59,19.99 -84.31,26.64 -167.06,58.16 -247.62,94.4 -6.29,2.88 -12.72,5.84 -17.6,10.69 -5.52,5.53 -8.49,12.98 -11.55,20.12 -8.34,19.18 -18.51,37.64 -30.37,54.93 -2.06,3.01 -7.54,18.9 -11.91,16.7 -4.52,-2.33 1.55,-17.56 3.05,-20.97 4.89,-10.65 9.77,-21.33 14.64,-31.98 9.77,-21.33 19.49,-42.66 29.25,-63.99 19.47,-42.67 39,-85.33 58.48,-128 0.68,-1.53 1.41,-3.1 1.36,-4.8 -0.18,-6.7 -10.07,-7.41 -16.69,-5.75 -34.76,8.71 -68.93,19.98 -102.04,33.59 31.38,2.38 60.94,-12.98 91.18,-21.6 4.66,-1.3 11.04,-1.76 12.91,2.65 1.1,2.6 -0.13,5.57 -1.36,8.08 -17.16,35.8 -34.31,71.55 -51.82,107.2 -16.47,33.51 -34.68,65.8 -65.74,87.98 9.44,-76.93 3.51,-145.82 -15.69,-215.52 -27.01,-98.267 -54.38,-198.236 -109.16,-284.556 4.1,-1.074 8.21,-0.449 12.13,1.078 4.7,1.887 9.17,5.074 13.05,8.356 38.27,32.289 62.27,78.007 97.66,113.351 24.32,24.254 53.65,43.25 77.46,67.949 1.78,1.84 3.61,3.907 3.88,6.379 0.36,3.461 -2.33,6.422 -4.79,8.938 -24.86,24.969 -49.77,49.937 -74.63,74.915 -3.38,3.37 -6.57,9.47 -2.56,12.03 2.56,-1.93 5.07,-3.91 7.53,-5.88 16.65,-13.3 32.53,-27.487 47.58,-42.487 7.53,-7.457 14.83,-15.18 21.94,-23.039 3.56,-3.953 7.02,-7.949 10.49,-11.992 1.74,-2.067 8.72,-7.949 7.53,-10.778 -1.05,-2.425 -4.24,-5.211 -5.93,-7.32 -2.28,-2.922 -4.61,-5.797 -6.93,-8.668 -4.7,-5.746 -9.4,-11.5 -14.14,-17.156 -9.4,-11.227 -18.98,-22.235 -28.79,-33.145 -29.01,-32.293 -59.67,-63.187 -91.87,-92.379 -11.77,-10.734 -24.54,-22.589 -26.73,-38.265 65.82,60.586 131.69,121.168 197.52,181.754 2.64,2.425 5.38,5.027 6.11,8.488 0.96,4.625 -2.01,9.07 -4.93,12.754 -14.36,18.324 -31.88,34.223 -51.54,46.887 -9.4,6.015 -20.62,17.196 -13.69,25.866 5.29,6.65 15.97,3.68 23.95,0.5 22.72,-9.17 46.67,-15.409 70.98,-18.554 4.42,-0.582 9.22,-0.988 13.09,1.262 7.58,4.398 6.61,15.442 3.7,23.622 -14.23,39.43 -51.09,69.12 -59.9,110.03 73.72,-33.95 147.12,-68.71 220.1,-104.24 2.74,-1.3 5.57,-2.78 7.21,-5.3 2.01,-3.19 1.6,-7.27 1.1,-11 -11.41,-87.53 -8.22,-176.858 9.49,-263.354 3.19,85.597 6.43,171.152 9.62,256.704 11.63,-5.747 19.75,-16.435 27.46,-26.767 1.96,-2.644 4.02,-5.387 4.89,-8.621 0.91,-3.457 0.36,-7.094 -0.19,-10.644 -9.94,-67.813 -5.06,-137.649 14.19,-203.489 1.18,62.379 2.37,124.762 3.6,187.141 14.83,-58.742 38.5,-115.285 70.02,-167.289 -30.97,80.164 -43.56,165.898 -68.15,248.169"
       style="fill:#ffffff;fill-opacity:1;fill-rule:nonzero;stroke:none"
       transform="matrix(0.13333333,0,0,-0.13333333,0,304)" />
    <path
       id="path16"
       d="m 888.453,1502.82 c -9.762,-2.43 -10.808,-18.64 -10.808,-18.64 -10.86,8.71 -1.235,25.55 4.238,27.62 5.519,2.07 16.375,-6.55 6.57,-8.98"
       style="fill:#ffffff;fill-opacity:1;fill-rule:nonzero;stroke:none"
       transform="matrix(0.13333333,0,0,-0.13333333,0,304)" />
    <path
       id="path17"
       d="m 1201.2,1388.84 c -0.72,-0.05 -33.8,-5.21 -36.67,8.26 -2.83,13.47 6.29,26.36 20.52,22.28 14.28,-4.14 31.39,-29.56 16.15,-30.54"
       style="fill:#ffffff;fill-opacity:1;fill-rule:nonzero;stroke:none"
       transform="matrix(0.13333333,0,0,-0.13333333,0,304)" />
    <path
       id="path18"
       d="m 888.453,1502.82 c -9.762,-2.43 -10.808,-18.64 -10.808,-18.64 -10.86,8.71 -1.235,25.55 4.238,27.62 5.519,2.07 16.375,-6.55 6.57,-8.98"
       style="fill:#ffffff;fill-opacity:1;fill-rule:nonzero;stroke:none"
       transform="matrix(0.13333333,0,0,-0.13333333,0,304)" />
    <path
       id="path19"
       d="m 1201.2,1388.84 c -0.72,-0.05 -33.8,-5.21 -36.67,8.26 -2.83,13.47 6.29,26.36 20.52,22.28 14.28,-4.14 31.39,-29.56 16.15,-30.54"
       style="fill:#ffffff;fill-opacity:1;fill-rule:nonzero;stroke:none"
       transform="matrix(0.13333333,0,0,-0.13333333,0,304)" />
    <path
       id="path20"
       d="m 1289.34,1686.28 c 0,0 -106.7,19.94 -192.23,18.82 -85.49,-1.13 -159.297,-6.2 -162.766,-6.2 -3.375,0 -21.621,-1.08 -13.684,16.57 8.028,17.69 173.66,-2.51 254.04,4.22 0,0 22.81,-1.98 21.39,14.33 -1.41,16.26 -13.68,98.8 -43.61,110.3 -29.92,11.5 -61.58,6.2 -118.87,0.27 -57.344,-5.88 -105.243,-27.48 -114.364,-55.55 -9.125,-28.08 -26.504,-71.86 -26.504,-71.86 0,1.66 8.574,86.99 8.574,86.99 0,0 8.805,42.94 114.314,53.08 105.47,10.07 133.12,13.75 159.66,-2.56 26.51,-16.25 54.75,-41.81 75.82,-81.69 21.12,-39.84 38.23,-86.72 38.23,-86.72"
       style="fill:#ffffff;fill-opacity:1;fill-rule:nonzero;stroke:none"
       transform="matrix(0.13333333,0,0,-0.13333333,0,304)" />
    <path
       id="path21"
       d="m 1289.34,1686.28 c 0,0 -106.7,19.94 -192.23,18.82 -85.49,-1.13 -159.297,-6.2 -162.766,-6.2 -3.375,0 -21.621,-1.08 -13.684,16.57 8.028,17.69 173.66,-2.51 254.04,4.22 0,0 22.81,-1.98 21.39,14.33 -1.41,16.26 -13.68,98.8 -43.61,110.3 -29.92,11.5 -61.58,6.2 -118.87,0.27 -57.344,-5.88 -105.243,-27.48 -114.364,-55.55 -9.125,-28.08 -26.504,-71.86 -26.504,-71.86 0,1.66 8.574,86.99 8.574,86.99 0,0 8.805,42.94 114.314,53.08 105.47,10.07 133.12,13.75 159.66,-2.56 26.51,-16.25 54.75,-41.81 75.82,-81.69 21.12,-39.84 38.23,-86.72 38.23,-86.72"
       style="fill:#ffffff;fill-opacity:1;fill-rule:nonzero;stroke:none"
       transform="matrix(0.13333333,0,0,-0.13333333,0,304)" />
    <path
       id="path22"
       d="m 1037.73,1531.11 c -1.55,0.18 -2.64,0.41 -3.05,0.49 1.09,-0.17 2.14,-0.31 3.05,-0.49"
       style="fill:#ffffff;fill-opacity:1;fill-rule:nonzero;stroke:none"
       transform="matrix(0.13333333,0,0,-0.13333333,0,304)" />
    <path
       id="path23"
       d="m 925.746,1297.8 c -0.594,-10.42 -1.414,-17.69 -1.414,-17.69 v 0.27 c 0.273,5.83 0.773,11.67 1.414,17.42"
       style="fill:#ffffff;fill-opacity:1;fill-rule:nonzero;stroke:none"
       transform="matrix(0.13333333,0,0,-0.13333333,0,304)" />
    <path
       id="path24"
       d="m 925.883,1335.48 c -0.32,1.66 -0.594,3.41 -0.688,5.16 -0.09,1.08 -0.09,2.16 -0.132,3.24 0.363,-2.7 0.636,-5.53 0.82,-8.4"
       style="fill:#ffffff;fill-opacity:1;fill-rule:nonzero;stroke:none"
       transform="matrix(0.13333333,0,0,-0.13333333,0,304)" />
    <path
       id="path25"
       d="m 1120.89,1659.51 c -1.45,0 -2.96,-0.05 -4.51,-0.09 1.14,0.13 2.6,0.18 4.51,0.09"
       style="fill:#ffffff;fill-opacity:1;fill-rule:nonzero;stroke:none"
       transform="matrix(0.13333333,0,0,-0.13333333,0,304)" />
    <path
       id="path26"
       d="m 1462.66,1550.06 c 0,0 -0.09,-0.63 -0.46,-1.62 -0.41,-1.21 -1,-2.2 -1.68,-3.05 -0.05,-0.04 -0.1,-0.14 -0.14,-0.18 -3.83,-5.21 -13.92,-12.98 -40.28,-14.82 -0.64,-0.04 -1.33,-0.09 -2.01,-0.13 -2.46,-0.14 -4.97,-0.1 -7.57,-0.05 -5.47,0.05 -10.9,0.18 -16.33,0.31 -15.01,0.45 -29.98,1.08 -44.98,1.85 -17.7,0.9 -35.35,1.97 -53.01,3.36 -17.01,1.31 -33.99,2.83 -50.91,4.94 -1.27,0.19 -2.59,0.32 -3.88,0.5 -67,8.71 -354.758,49.4 -385.187,56.14 -30.426,6.73 -30.336,10.1 -9.258,10.1 21.027,0 269.145,-38.17 307.595,-43.43 38.46,-5.21 179.5,-24.43 247.15,-19.31 67.7,5.12 21.67,21.2 0.78,29.42 -20.9,8.26 -53.6,25.46 -56.25,22.86 -2.69,-2.65 2.28,-8.99 6.85,-12.35 4.56,-3.37 -11.04,-5.26 -44.12,-5.26 -33.06,0 -198.07,10.11 -309.419,28.43 -62.129,10.24 -135.254,13.39 -187.852,12.22 0,0 -0.773,0 -2.14,-0.05 -0.957,0 -2.239,-0.05 -3.739,-0.13 -0.683,0 -1.371,0 -2.144,-0.05 h -0.094 c -14.094,-0.58 -43.516,-2.56 -62.539,-9.65 -1.141,-0.41 -2.238,-0.86 -3.285,-1.3 0,0 1.183,0.04 3.375,0.04 6.617,0.04 22.672,-0.27 45.16,-2.96 0.551,-0.05 1.094,-0.1 1.691,-0.18 31.426,-3.69 99.305,-23 104.414,-22.82 0,0 -0.363,-1.62 -0.867,-4.18 -1.82,-14.86 2.602,-30.17 3.059,-31.75 0,-0.04 0,-0.04 0.047,-0.08 v -0.05 c 3.375,-6.51 1.863,-14.06 -4.563,-10.2 -7.621,4.54 -20.758,12.22 -32.711,8.04 -9.851,-3.46 -12.679,-14.87 -12.679,-14.87 -5.067,1.53 -10.079,2.84 -14.918,4.95 -1.414,0.63 -2.825,1.21 -4.286,1.84 -4.199,1.89 -8.351,3.77 -12.546,5.7 -5.43,2.56 -10.813,5.17 -16.145,7.82 -6.023,3 -11.957,6.15 -17.84,9.38 -5.926,3.28 -11.765,6.69 -17.469,10.33 -5.203,3.33 -10.265,6.87 -15.054,10.73 -3.922,3.19 -7.711,6.61 -10.766,10.56 -2.144,2.83 -4.156,6.2 -4.332,9.84 -0.051,0.44 -0.051,0.94 0,1.39 2.281,25.87 71.297,37.63 134.293,38.17 63.043,0.58 191.319,7.05 234.109,-3.9 42.74,-10.97 147.39,-25.29 187.03,-26.1 39.59,-0.85 47.58,-4.49 47.58,2.24 0,0.59 0.09,1.09 0.23,1.49 l 0.86,5.7 c 0,-0.13 3.01,-1.17 3.2,-1.21 2.41,-0.9 4.78,-1.93 7.21,-2.78 4.42,-1.53 8.71,-3.33 12.9,-5.4 20.76,-9.74 88.18,-42.12 97.07,-46.66 5.02,-2.55 7.99,-8.3 6.85,-13.83 z m -237.82,-60.26 c -5.52,3.52 -9.02,11.12 -8.99,15.75 -0.46,7.39 5.5,8.14 8.6,6.64 7.71,-3.1 -1.63,-12.6 0.39,-22.39 z m 65.02,-33.42 c -39.91,-10.06 -64.41,23.62 -55.56,44.91 8.81,21.37 30.47,25.01 88.36,20.79 0,0 7.12,-55.55 -32.8,-65.7 z m -218.69,96.19 c -13.27,0.37 -30.56,-11.58 -43.51,-10.82 -12.92,0.77 -106.07,8.94 -116.691,8.94 -10.633,0 -7.211,32.2 -7.211,32.2 l 15.875,-3.01 c 0,0 164.857,-27.67 151.537,-27.31 z m 66.74,-30.67 c 26.09,-10.82 17.33,-46.75 2.28,-59.69 -15.01,-12.88 -80.01,-31.61 -96.94,17.21 0,0 -5.47,28.06 4.2,36.33 9.72,8.22 64.37,16.98 90.46,6.15 z m -85.71,8.4 c -7.67,-0.85 -11.45,-4.13 -12.59,-5.3 -0.14,-0.18 -0.28,-0.31 -0.32,-0.4 v -0.05 h -0.05 c -6.02,-8.35 -7.39,-22.72 -8.26,-22.95 -1.14,-0.31 -1.68,0.27 -4.24,6.43 -2.6,6.19 -8.3,8.17 -22.26,12.39 -13.96,4.18 -86.125,14.87 -94.382,16.21 -8.254,1.35 -3.102,4.54 -1.961,4.54 58.164,-0.18 105.603,-6.34 126.363,-9.52 h 0.04 c 0.05,0 0.09,-0.05 0.14,-0.05 1.09,-0.17 2.14,-0.31 3.05,-0.49 0.19,-0.05 0.41,-0.05 0.64,-0.09 4.43,-0.5 11.86,-0.67 18.21,2.38 32.93,20.48 80.97,-3.1 80.97,-3.1 -35.36,12.17 -85.35,0 -85.35,0 z m 189.76,-123.01 c -0.73,-10.6 -17.79,-11.36 -22.89,-20.7 -5.21,-9.48 3.92,-24.43 -5.03,-30.72 -4.78,-3.33 -11.35,-1.17 -17.06,0.22 -18.01,4.31 -36.81,-0.99 -54.55,-6.2 -11.5,-3.41 -24.27,-7.81 -29.52,-18.45 17.7,3.99 35.45,8.04 53.15,12.03 8.89,2.02 18.15,4.05 27.14,2.25 5.2,-1.03 10.26,-3.33 15.55,-2.87 4.29,0.4 8.3,2.64 12.64,2.83 10.67,0.49 17.47,-10.83 21.62,-20.53 -6.84,-3.59 -15.14,-1.94 -22.76,-0.4 -26.87,5.25 -54.42,7.13 -81.79,5.56 -3.19,-0.17 -6.8,-0.67 -8.58,-3.27 -1.87,-2.65 -0.73,-6.51 1.64,-8.76 2.42,-2.2 5.71,-3.19 8.85,-4 22.95,-5.97 46.94,-7.95 70.58,-5.8 5.15,0.46 11.4,0.64 14.27,-3.63 -6.47,-2.38 -12.45,-5.97 -17.61,-10.51 1.46,-4.22 9.04,-1.03 12.14,-4.31 2.19,-2.29 0.32,-6.38 -2.6,-7.64 -2.97,-1.25 -6.34,-0.58 -9.45,0 -16.88,3.06 -34.34,2.61 -51.04,-1.34 -7.43,-1.75 -14.96,-4.36 -20.67,-9.43 -5.65,-5.03 -9.16,-13.07 -6.98,-20.3 3.02,-10.15 15.7,-15.86 17.07,-26.32 -4.25,0.77 -8.4,1.84 -12.5,3.19 -7.35,2.42 -14.46,5.61 -21.49,8.8 -61.31,27.62 -125.672,57.76 -163.445,112.73 -14.047,20.52 -23.766,46.84 -18.563,71.09 -0.641,0.14 -1.281,0.27 -1.922,0.4 -0.863,0.18 -1.64,0.59 -2.551,0.36 -1.004,-0.27 -1.964,-0.89 -2.828,-1.39 -1.965,-1.13 -4.062,-3.55 -6.203,-4.27 -1.961,-0.67 -4.152,-0.45 -6.207,-0.04 -14.183,2.79 -25.637,13.7 -32.34,26.32 -6.707,12.61 -9.355,26.85 -11.679,40.91 -1.825,10.91 -3.516,22.54 -0.18,33.32 2.598,8.54 11.449,14.69 20.57,11.63 6.387,-2.15 11.086,-7.5 15.008,-12.89 5.613,-7.72 10.355,-18.32 5.02,-26.22 -2.602,-3.87 -7.028,-6.06 -10.356,-9.3 -6.066,-5.93 -7.937,-15.67 -4.426,-23.4 3.512,-7.68 12.086,-12.8 20.664,-12.31 -0.183,7.11 -9.804,10.83 -11.086,17.79 -1.457,8.18 8.579,13.07 14.098,19.31 5.43,6.11 6.844,14.87 5.656,22.86 -1.23,8 -4.699,15.45 -8.164,22.77 31.063,-2.24 61.856,-7.54 91.784,-15.81 5.47,-1.53 11.13,-3.23 15.32,-7.05 7.9,-7.18 8.08,-19.13 11.22,-29.23 5.34,-17.11 20.53,-30.32 37.87,-35.75 17.33,-5.43 36.4,-3.68 53.51,2.47 12.73,4.53 24.85,11.72 33.07,22.41 10.17,13.25 13.32,31.53 8.07,47.38 -5.24,15.81 -18.7,28.79 -34.89,33.59 37.77,-4.71 75.58,-9.43 113.35,-14.15 -5.42,-10.32 -19.25,-12.84 -31.01,-12.25 -11.77,0.58 -24.23,3 -34.9,-1.94 5.88,-0.67 11.77,-1.3 17.65,-1.97 2.1,-0.23 4.38,-0.54 5.89,-1.98 1.27,-1.21 1.82,-2.96 2.28,-4.67 5.38,-19.85 10.76,-40.01 10.72,-60.54 -0.05,-10.42 -1.42,-21.38 3.05,-30.85 4.43,-9.43 17.7,-15.77 25.82,-9.03 z M 945.18,1181.34 c 24.316,-23.93 57.79,-43.69 88.95,-57.25 -31.34,-14.06 -75.267,-84.21 -75.267,-84.21 0,0 -23.629,27.21 -44.156,93.46 -20.531,66.24 -4.285,122.11 -4.285,122.11 0,-27.44 15.414,-55.02 34.758,-74.11 z m -59.121,225.37 c -18.34,12.53 -30.426,36.83 -35.762,57.43 -3.969,15.15 -4.242,30.95 -1.734,46.31 0.914,5.39 1.367,11.32 3.785,16.44 0.09,0.22 0.226,0.49 0.41,0.81 1.824,3.36 6.75,10.68 10.445,8.57 3.012,-1.75 -3.648,-11.67 -4.469,-13.61 -5.75,-13.51 -4.515,-29.05 -2.418,-43.2 2.555,-17.15 7.391,-34.49 17.61,-48.59 20.801,-28.88 37.043,-23.58 40.187,-23.58 3.149,0 6.114,-1.12 5.43,-6.74 -0.73,-5.61 -19.891,-3.09 -33.484,6.16 z M 856.59,1661.3 c 4.199,13.48 41.512,17.97 63.043,20.98 94.247,12.98 232.327,3.36 247.157,3.36 14.82,0 13.68,-1.88 3.42,-10.5 0,0 -0.18,-0.14 -0.5,-0.41 -2.92,-2.2 -18.39,-13.2 -39.32,-15.04 -2.93,-0.23 -5.94,-0.31 -9.04,-0.18 h -0.46 c -1.45,0 -2.96,-0.05 -4.51,-0.09 -69.25,-1.17 -230.095,-3.37 -250.259,-9.71 0,0 -13.683,-1.88 -9.531,11.59 z m 30.789,134.38 c 0,0 10.266,52.36 65.008,63.59 54.743,11.23 129.643,26.23 166.913,26.23 37.22,0 78.68,2.24 107.56,-34.81 28.88,-37.05 82.89,-173.67 82.89,-173.67 0,0 5.7,-6.56 -17.88,-3.72 -23.58,2.78 -87.04,25.06 -181.69,24.7 -94.66,-0.41 -219.512,-8.98 -237.485,-17.61 0,0 -8.761,-4.67 -8.441,5.88 0.32,10.61 23.125,109.41 23.125,109.41 z m 566.431,-208.48 -111.76,50.17 c -15.19,54.25 -80.38,189.83 -80.38,189.83 -29.38,49.41 -62.17,74.1 -115.23,72.4 -53.01,-1.66 -183.014,-25.56 -221.514,-37.59 -38.504,-12.08 -50.727,-55.02 -50.727,-55.02 -3.742,-21.06 -32.797,-157.5 -32.797,-157.5 -9.492,-0.08 -18.976,-0.58 -28.422,-1.48 -21.078,-2.02 -42.289,-6.06 -61.949,-13.97 -15.328,-6.11 -37.316,-16.75 -32.156,-36.47 3.645,-13.96 15.008,-25.59 25.953,-34.48 25.863,-20.98 84.711,-43.16 89.141,-44.47 4.465,-1.3 3.465,-6.91 3.465,-6.91 -6.024,-23.58 0.543,-61.21 15.097,-86.19 4.926,-8.53 11.949,-15.72 19.617,-21.91 7.434,-5.98 15.141,-7.18 23.446,-11.86 6.519,-3.64 12.679,-5.52 13.867,-13.74 1.641,-11.54 2.051,-16.21 3.785,-31.8 0.594,-5.21 0.5,-16.26 -0.73,-21.42 -4.012,-17.38 -17.926,-30.27 -29.696,-42.71 -11.953,-12.67 -24.086,-25.33 -34.851,-38.98 -15.832,-20.08 -32.844,-43.02 -53.008,-59.37 -14.141,-11.5 -30.973,-19.27 -47.578,-26.95 -20.754,-9.61 -41.879,-18.32 -62.496,-28.25 -21.168,-10.15 -40.875,-22.37 -60.899,-34.49 -14.23,-8.62 -28.511,-17.29 -42.746,-25.96 -7.25,-4.4 -14.457,-9.7 -22.121,-13.43 66.008,32.34 131.973,64.67 197.981,97.01 8.16,4 16.832,8.13 25.906,7.46 -20.848,-24.12 -41.738,-48.19 -62.633,-72.31 -6.25,-7.23 -12.27,-19 -4.695,-24.93 3.375,-2.65 8.074,-2.6 12.406,-2.47 26.504,0.95 53.098,0.86 79.605,-0.31 2.645,-0.14 5.653,-0.49 7.114,-2.65 2.144,-3.14 -0.774,-7.18 -3.512,-9.84 -15.875,-15.22 -32.801,-29.32 -50.68,-42.16 -11.179,-8.048 -23.769,-17.345 -24.996,-30.903 -1.097,-12.172 7.613,-22.906 15.824,-32.113 54.059,-60.809 108.161,-121.618 162.215,-182.426 -47.761,64.672 -95.519,129.387 -143.281,194.101 -7.074,9.524 -14.418,21.692 -9.309,32.336 2.418,5.032 7.207,8.489 11.77,11.723 31.156,22.052 62.266,44.102 93.422,66.192 -28.145,-23.66 -56.336,-47.33 -84.481,-70.997 -6.476,-5.433 -13.55,-12.265 -12.773,-20.613 0.457,-4.805 3.512,-8.984 6.476,-12.891 C 829.766,887.453 884.051,816 938.383,744.59 892.129,817.75 845.914,890.863 799.66,964.023 c 68.84,-78.234 143.422,-151.527 223.07,-219.07 -45.207,81.512 -71.437,171.649 -97.347,260.927 -8.625,29.73 -17.293,59.51 -25.914,89.24 -13.727,47.29 -27.551,96.38 -19.75,144.97 -44.43,-46.53 -80.606,-94.45 -112.039,-150.32 22.765,-0.58 43.203,-6.33 65.828,-8.98 -31.25,-0.36 -62.496,-0.76 -93.746,-1.16 50.179,74.19 106.836,144.11 169.105,208.78 -34.301,-90.62 -12.863,-199.4 53.418,-270.76 19.613,25.87 39.235,51.73 58.845,77.6 5.57,7.32 11.41,14.91 19.57,19.23 20.94,11.04 47.08,-3.96 60.76,-23.09 13.69,-19.13 20.85,-42.58 36.86,-59.87 35.4,59.42 71.3,119.87 88.13,186.74 -10.35,-9.52 -26.95,-7 -39.96,-12.48 -6.52,-2.74 -11.95,-7.46 -17.38,-11.9 -28.6,-23.36 -60.85,-42.31 -95.25,-56 -7.7,-3.11 -15.78,-5.94 -24.08,-5.67 -10.17,0.36 -19.53,5.35 -28.47,10.2 -33.478,18.32 -68.923,38.58 -85.802,72.39 -1.457,2.92 -2.738,5.89 -3.879,8.94 -6.844,18.01 -8.211,37.23 -7.297,56.37 v 0.27 c 0.273,5.83 0.773,11.67 1.414,17.42 0.047,0.09 0.047,0.13 0,0.22 0.637,10.65 1.047,24.62 0.133,37.46 -0.316,1.66 -0.59,3.41 -0.684,5.16 -0.09,1.08 -0.09,2.16 -0.132,3.24 v 0.22 c -0.137,5.08 0.042,10.15 0.546,15.13 0.184,1.94 1.457,5.66 0.957,7.55 0,0 7.207,-26.58 31.157,-55.01 23.949,-28.48 135.987,-87.49 153.087,-89.73 17.11,-2.25 36,-3.95 66.47,-3.68 27.78,0.22 58.71,8.44 76.95,35.11 18.25,26.68 31.66,95.98 36.23,113.08 4.56,17.16 13.77,78.06 13.77,78.06 -19.98,-1.48 -54.92,-21.15 -54.92,-21.15 -7.07,8.17 -15.19,38.71 -16.24,42.93 3.88,-12.75 19.84,-19.35 19.84,-19.35 27.37,-8.81 43.88,-0.95 67.1,12.53 23.18,13.47 18.34,60 18.34,60 64.73,-1.39 143.7,1.12 147.39,25.55 3.7,24.39 -31.93,42.08 -31.93,42.08"
       style="fill:#ffffff;fill-opacity:1;fill-rule:nonzero;stroke:none"
       transform="matrix(0.13333333,0,0,-0.13333333,0,304)" />
    <path
       id="path27"
       d="m 1121.35,1659.51 c 3.1,-0.13 6.11,-0.05 9.04,0.18 -2.75,-0.05 -5.75,-0.1 -9.04,-0.18"
       style="fill:#ffffff;fill-opacity:1;fill-rule:nonzero;stroke:none"
       transform="matrix(0.13333333,0,0,-0.13333333,0,304)" />
    <path
       id="path28"
       d="m 1121.35,1659.51 c 3.1,-0.13 6.11,-0.05 9.04,0.18 -2.75,-0.05 -5.75,-0.1 -9.04,-0.18"
       style="fill:#ffffff;fill-opacity:1;fill-rule:nonzero;stroke:none"
       transform="matrix(0.13333333,0,0,-0.13333333,0,304)" />
    <path
       id="path29"
       d="m 724.242,379.215 -22.976,90.055 h 27.089 l 6.161,-43.793 c 0.687,-4.809 1.226,-8.821 1.64,-12.055 0.407,-3.231 0.711,-6.125 0.969,-8.66 0.355,3.75 0.766,7.363 1.223,10.816 0.488,3.473 1.05,6.809 1.691,10 l 8.609,43.692 h 27.145 l 8.305,-43.633 c 0.355,-1.754 0.972,-5.809 1.867,-12.157 0.562,-3.707 0.996,-6.621 1.355,-8.781 0.535,5.434 1.024,9.68 1.379,12.758 0.383,3.07 0.715,5.645 1.02,7.723 l 6.136,44.09 h 27.168 l -22.824,-90.055 h -29.133 l -6.289,37.242 c -0.562,3.273 -1.047,6.727 -1.457,10.32 -0.433,3.61 -0.816,7.344 -1.175,11.215 -0.383,-4.449 -0.821,-8.402 -1.227,-11.875 -0.434,-3.472 -0.895,-6.726 -1.379,-9.781 l -6.004,-37.121 z m 130.293,33.512 h 15.488 l -7.714,39.296 z m -33.324,-33.512 25.144,90.055 h 32.051 l 24.867,-90.055 h -26.96 l -3.375,17.262 H 851.75 l -3.348,-17.262 z m 151.988,0 h -59.371 v 90.055 h 26.961 v -71.875 h 32.41 z m 39.761,33.512 h 15.49 l -7.72,39.296 z m -33.319,-33.512 25.149,90.055 h 32.05 l 24.86,-90.055 h -26.96 l -3.37,17.262 h -21.19 l -3.35,-17.262 z m 160.679,54.848 h 1.71 c 5.29,0 9.2,0.855 11.73,2.593 2.53,1.739 3.78,4.43 3.78,8.063 0,3.152 -1.25,5.566 -3.75,7.261 -2.48,1.7 -6.06,2.559 -10.71,2.559 -0.74,0 -1.3,0 -1.71,-0.019 -0.41,-0.02 -0.72,-0.059 -0.98,-0.102 z m 0,-38.942 h 2.32 c 5.65,0 9.9,1.039 12.73,3.094 2.84,2.074 4.27,5.148 4.27,9.242 0,3.832 -1.41,6.625 -4.19,8.398 -2.79,1.778 -7.21,2.657 -13.27,2.657 h -1.86 z m -26.96,-15.906 v 90.055 h 28.98 c 8.79,0 15.08,-0.282 18.91,-0.821 3.81,-0.539 7.13,-1.457 9.92,-2.754 4.13,-1.933 7.28,-4.511 9.4,-7.703 2.12,-3.215 3.17,-6.988 3.17,-11.359 0,-3.891 -1,-7.363 -2.97,-10.399 -1.96,-3.05 -5.11,-6.004 -9.45,-8.898 5.14,-2.016 9,-4.793 11.6,-8.266 2.58,-3.492 3.89,-7.683 3.89,-12.554 0,-4.008 -0.87,-7.801 -2.63,-11.395 -1.74,-3.594 -4.2,-6.644 -7.34,-9.18 -2.99,-2.457 -6.67,-4.191 -11.07,-5.211 -4.39,-1.015 -11.16,-1.515 -20.37,-1.515 z m 88.94,0 v 90.055 h 26.96 v -34.032 h 21.65 v 34.032 h 26.34 v -90.055 h -26.34 v 37.363 h -21.65 v -37.363 z m 118.68,33.512 h 15.49 l -7.72,39.296 z m -33.32,-33.512 25.14,90.055 h 32.06 l 24.86,-90.055 h -26.96 l -3.37,17.262 h -21.19 l -3.35,-17.262 z m 92.62,0 v 90.055 h 26.96 v -90.055 z m 61.77,0 v 38.18 l -26.5,51.875 h 28.98 l 11.14,-28.485 11.25,28.485 h 29.26 l -26.5,-51.875 v -38.18 z m 80.71,33.512 h 15.49 l -7.72,39.296 z m -33.33,-33.512 25.15,90.055 h 32.05 l 24.87,-90.055 h -26.97 l -3.37,17.262 h -21.19 l -3.34,-17.262 h -27.2"
       style="fill:#ffffff;fill-opacity:1;fill-rule:nonzero;stroke:none"
       transform="matrix(0.13333333,0,0,-0.13333333,0,304)" />
  </g>
</svg>
